<?xml version="1.0" encoding="iso-8859-1"?>
<!-- Generator: Adobe Illustrator 19.0.0, SVG Export Plug-In . SVG Version: 6.00 Build 0)  -->
<svg version="1.1" id="Layer_1" xmlns="http://www.w3.org/2000/svg" xmlns:xlink="http://www.w3.org/1999/xlink" x="0px" y="0px"
	 viewBox="0 0 511.999 511.999" style="enable-background:new 0 0 511.999 511.999;" xml:space="preserve">
<path style="fill:#9CDCFF;" d="M479.333,403.888H32.666c-12.408,0-22.467-10.058-22.467-22.468V130.579
	c0-12.409,10.058-22.468,22.467-22.468h446.667c12.408,0,22.468,10.058,22.468,22.468v250.842
	C501.801,393.829,491.742,403.888,479.333,403.888z"/>
<path style="fill:#45B5F5;" d="M82.108,350.117c0-40.795,35.317-73.865,78.882-73.865s78.882,33.071,78.882,73.865H82.108z"/>
<circle style="fill:#FFE049;" cx="160.128" cy="203.106" r="42.837"/>
<g>
	<path style="fill:#3B404F;" d="M479.334,97.912H32.666C14.654,97.912,0,112.566,0,130.578V381.42
		c0,18.013,14.654,32.667,32.666,32.667h446.667c18.012,0,32.666-14.654,32.666-32.666V130.578
		C512,112.566,497.346,97.912,479.334,97.912z M491.602,381.421c0,6.764-5.504,12.268-12.268,12.268H32.666
		c-6.764,0-12.268-5.503-12.268-12.268V130.578c0-6.764,5.503-12.268,12.268-12.268h446.667c6.765,0,12.268,5.503,12.268,12.268
		v250.843H491.602z"/>
	<path style="fill:#3B404F;" d="M311.004,202.821h134.023c5.632,0,10.199-4.566,10.199-10.199s-4.567-10.199-10.199-10.199H311.004
		c-5.632,0-10.199,4.566-10.199,10.199S305.371,202.821,311.004,202.821z"/>
	<path style="fill:#3B404F;" d="M311.004,268.31h134.023c5.632,0,10.199-4.566,10.199-10.199s-4.567-10.199-10.199-10.199H311.004
		c-5.632,0-10.199,4.566-10.199,10.199C300.805,263.744,305.371,268.31,311.004,268.31z"/>
	<path style="fill:#3B404F;" d="M445.578,313.4h-8.032c-5.632,0-10.199,4.566-10.199,10.199c0,5.633,4.567,10.199,10.199,10.199
		h8.032c5.632,0,10.199-4.566,10.199-10.199C455.777,317.966,451.21,313.4,445.578,313.4z"/>
	<path style="fill:#3B404F;" d="M398.789,313.4h-87.785c-5.632,0-10.199,4.566-10.199,10.199c0,5.633,4.567,10.199,10.199,10.199
		h87.785c5.632,0,10.199-4.566,10.199-10.199C408.988,317.966,404.421,313.4,398.789,313.4z"/>
	<path style="fill:#3B404F;" d="M160.989,266.053c-49.12,0-89.082,37.712-89.082,84.064c0,5.633,4.566,10.199,10.199,10.199h157.764
		c5.633,0,10.199-4.566,10.199-10.199C250.071,303.764,210.109,266.053,160.989,266.053z M150.029,287.277v52.64H93.187
		C97.891,312.954,120.935,291.623,150.029,287.277z M170.428,339.918V287.05c29.812,3.815,53.578,25.434,58.365,52.868H170.428z"/>
	<path style="fill:#3B404F;" d="M160.128,256.142c29.244,0,53.036-23.792,53.036-53.036s-23.792-53.036-53.036-53.036
		s-53.036,23.792-53.036,53.036S130.883,256.142,160.128,256.142z M160.128,170.469c17.996,0,32.637,14.641,32.637,32.637
		s-14.641,32.637-32.637,32.637s-32.637-14.641-32.637-32.637S142.131,170.469,160.128,170.469z"/>
</g>
<g>
</g>
<g>
</g>
<g>
</g>
<g>
</g>
<g>
</g>
<g>
</g>
<g>
</g>
<g>
</g>
<g>
</g>
<g>
</g>
<g>
</g>
<g>
</g>
<g>
</g>
<g>
</g>
<g>
</g>
</svg>
