<?xml version="1.0" encoding="iso-8859-1"?>
<!-- Generator: Adobe Illustrator 19.0.0, SVG Export Plug-In . SVG Version: 6.00 Build 0)  -->
<svg version="1.1" id="Layer_1" xmlns="http://www.w3.org/2000/svg" xmlns:xlink="http://www.w3.org/1999/xlink" x="0px" y="0px"
	 viewBox="0 0 512 512" style="enable-background:new 0 0 512 512;" xml:space="preserve">
<rect x="10.199" y="148.776" style="fill:#45B5F5;" width="451.213" height="255.98"/>
<rect x="50.584" y="107.245" style="fill:#9CDCFF;" width="451.213" height="255.98"/>
<rect x="125.45" y="150.795" style="fill:#1685CF;" width="121.371" height="169.307"/>
<g>
	<path style="fill:#3B404F;" d="M501.801,97.049H50.584c-5.632,0-10.199,4.566-10.199,10.199v31.325H10.199
		C4.567,138.574,0,143.14,0,148.773v255.979c0,5.633,4.567,10.199,10.199,10.199h451.217c5.632,0,10.199-4.566,10.199-10.199
		v-31.325h30.186c5.632,0,10.199-4.566,10.199-10.199V107.249C512,101.616,507.433,97.049,501.801,97.049z M451.217,394.552H20.398
		v-235.58h19.986v204.255c0,5.633,4.567,10.199,10.199,10.199h400.634v21.126H451.217z M491.602,353.028H60.783v-235.58h430.818
		V353.028z"/>
	<path style="fill:#3B404F;" d="M326.678,307.484h123.013c5.632,0,10.199-4.566,10.199-10.199s-4.567-10.199-10.199-10.199H326.678
		c-5.632,0-10.199,4.566-10.199,10.199S321.045,307.484,326.678,307.484z"/>
	<path style="fill:#3B404F;" d="M326.678,247.375h123.013c5.632,0,10.199-4.566,10.199-10.199c0-5.633-4.567-10.199-10.199-10.199
		H326.678c-5.632,0-10.199,4.566-10.199,10.199C316.479,242.808,321.045,247.375,326.678,247.375z"/>
	<path style="fill:#3B404F;" d="M442.825,187.266h7.373c5.632,0,10.199-4.566,10.199-10.199s-4.567-10.199-10.199-10.199h-7.373
		c-5.632,0-10.199,4.566-10.199,10.199S437.192,187.266,442.825,187.266z"/>
	<path style="fill:#3B404F;" d="M326.678,187.266h80.573c5.632,0,10.199-4.566,10.199-10.199s-4.567-10.199-10.199-10.199h-80.573
		c-5.632,0-10.199,4.566-10.199,10.199S321.045,187.266,326.678,187.266z"/>
	<path style="fill:#3B404F;" d="M125.45,330.297h121.371c5.632,0,10.199-4.566,10.199-10.199V150.791
		c0-5.633-4.567-10.199-10.199-10.199H125.45c-5.632,0-10.199,4.566-10.199,10.199v169.307
		C115.251,325.731,119.818,330.297,125.45,330.297z M135.649,160.99h100.972v148.908h-18.359V294.6
		c0-5.633-4.567-10.199-10.199-10.199s-10.199,4.566-10.199,10.199v15.299h-62.215V160.99z"/>
	<path style="fill:#3B404F;" d="M168.287,178.329h-5.1c-5.632,0-10.199,4.566-10.199,10.199s4.567,10.199,10.199,10.199h5.1
		c5.632,0,10.199-4.566,10.199-10.199S173.919,178.329,168.287,178.329z"/>
	<path style="fill:#3B404F;" d="M203.984,198.727h5.1c5.632,0,10.199-4.566,10.199-10.199s-4.567-10.199-10.199-10.199h-5.1
		c-5.632,0-10.199,4.566-10.199,10.199S198.352,198.727,203.984,198.727z"/>
	<path style="fill:#3B404F;" d="M168.287,207.907h-5.1c-5.632,0-10.199,4.566-10.199,10.199c0,5.633,4.567,10.199,10.199,10.199h5.1
		c5.632,0,10.199-4.566,10.199-10.199C178.486,212.473,173.919,207.907,168.287,207.907z"/>
	<path style="fill:#3B404F;" d="M203.984,228.305h5.1c5.632,0,10.199-4.566,10.199-10.199c0-5.633-4.567-10.199-10.199-10.199h-5.1
		c-5.632,0-10.199,4.566-10.199,10.199C193.785,223.739,198.352,228.305,203.984,228.305z"/>
	<path style="fill:#3B404F;" d="M168.287,236.464h-5.1c-5.632,0-10.199,4.566-10.199,10.199c0,5.633,4.567,10.199,10.199,10.199h5.1
		c5.632,0,10.199-4.566,10.199-10.199C178.486,241.031,173.919,236.464,168.287,236.464z"/>
	<path style="fill:#3B404F;" d="M203.984,256.863h5.1c5.632,0,10.199-4.566,10.199-10.199c0-5.633-4.567-10.199-10.199-10.199h-5.1
		c-5.632,0-10.199,4.566-10.199,10.199C193.785,252.297,198.352,256.863,203.984,256.863z"/>
</g>
<g>
</g>
<g>
</g>
<g>
</g>
<g>
</g>
<g>
</g>
<g>
</g>
<g>
</g>
<g>
</g>
<g>
</g>
<g>
</g>
<g>
</g>
<g>
</g>
<g>
</g>
<g>
</g>
<g>
</g>
</svg>
